<svg xmlns="http://www.w3.org/2000/svg" width="363" height="56" viewBox="0 0 363 56">
    <path fill="#1793da" fill-rule="evenodd" d="M63.64 47.83c-2.89.359-4.235-1.782-4.679-5.347-.718-5.782 1.558-16.653 7-17.329 3.311-.412 5.104 2.854 5.104 2.854s-1.086 19.033-7.424 19.821zm121.065-23.773c1.574 0 2.504 1.3 2.504 3.863 0 3.578-2.862 9.055-10.232 9.914 0 0 2.003-13.777 7.728-13.777zm167.376-.028c1.563 0 2.486 1.174 2.486 3.452 0 3.849-2.723 9.403-9.702 10.414a.342.342 0 0 1-.386-.391c.4-2.392 2.53-13.475 7.602-13.475zm10.49 23.969l-1.673-2.631c-.312-.49-.958-.547-1.427-.204-2.658 1.943-5.166 3.467-8.776 3.467-5.45 0-6.176-4.978-6.273-6.304a.33.33 0 0 1 .296-.353c2.338-.261 17.083-2.354 18-13.539.556-6.797-4.88-9.45-10.411-9.45-8.698 0-17.634 8.923-17.634 20.321 0 1.432.102 2.74.285 3.942-1.837 1.875-4.071 3.263-6.314 4.29.35-1.045.596-2.222.707-3.55.818-9.77-16.462-11.418-16.023-17.318.222-2.974 2.088-3.993 4.432-3.993 1.676 0 3.352.742 3.434 3.093.092 2.654 1.409 5.287 4.734 5.287 2.587 0 4.132-1.758 4.132-4.337 0-4.179-4.918-7.722-12.152-7.722-6.388 0-13.113 2.156-13.62 9.534-.654 9.512 15.349 9.916 15.602 17.175.082 2.324-2.013 3.883-5.12 3.883-3.551 0-5.73-1.636-6.972-3.105.778-.62 1.689-1.695 1.689-3.347 0-1.825-1.163-2.954-2.877-2.954-2.558 0-4.166 2.551-3.505 5.131-1.688 1.948-4.239 4.189-7.04 4.189-1.287 0-1.778-1.408-1.778-2.834 0-5.383 1.819-15.78 3.942-25.042a1.332 1.332 0 0 0-1.297-1.632h-7.386c-.635 0-1.18.447-1.306 1.069-.171.847-.43 2.153-.732 3.74-.685 1.572-2.81 5.555-6.768 5.555-.167 0-.328-.016-.486-.04.23-1.476.356-2.97.356-4.471 0-3.814-1.993-8.067-6.457-8.067-3.085 0-5.821 2.214-5.821 6.398 0 4.077 3.94 8.298 3.94 8.298 0 6.246-6.19 17.026-10.528 17.026-1.1 0-1.778-1.384-1.778-3.368 0-5.384 1.82-15.245 3.943-24.508a1.332 1.332 0 0 0-1.297-1.632h-7.387c-.634 0-1.18.447-1.306 1.069-.68 3.373-2.755 13.979-3.373 20.932-1.023 1.803-4.545 7.507-8.198 7.507-1.286 0-1.778-1.408-1.778-2.834 0-5.383 1.82-15.78 3.943-25.042a1.332 1.332 0 0 0-1.298-1.632h-7.386c-.634 0-1.18.447-1.305 1.069-.674 3.338-2.712 13.757-3.354 20.712-1.093 1.616-5.482 7.672-9.8 7.672-1.105 0-1.568-1.346-1.259-3.33.182-1.166.537-2.395.98-3.68 1.615-4.41 3.834-9.342 4.39-14.192.729-6.361-2.348-9.58-7.72-9.252-2.1.129-4.455.87-6.72 2.18-.06-3.487-1.911-7.297-5.979-7.297-2.86 0-5.395 2.945-5.395 6.54 0 3.94 2.03 7.29 4.57 7.866-2.5 7.34-9.245 20.999-20.928 20.999-6.332 0-6.332-7.37-6.332-7.37s17.437-1.183 18.439-13.419c.56-6.846-5.17-9.516-10.179-9.516-9.208 0-18.063 8.737-18.063 20.216 0 1.964.206 3.703.574 5.245-1.669 1.926-4.625 4.78-7.5 4.78-1.425 0-2.016-1.209-2.016-2.339 0-3.405 2.167-11.814 2.388-16.33.371-7.569-3.683-11.55-8.948-11.55-3.418 0-7.42 1.936-10.243 5.346.145-1.02.278-1.961.392-2.79.141-1.03-.683-1.934-1.722-1.928l-6.068.034c-.89.005-1.57.69-1.706 1.57-.933 6.042-2.381 15.48-3.494 22.638-1.528 1.867-4.802 5.348-7.979 5.348-1.425 0-2.015-1.208-2.015-2.338 0-3.405 2.167-11.814 2.388-16.33.371-7.569-3.683-11.55-8.949-11.55-3.418 0-7.42 1.936-10.243 5.346.146-1.02.278-1.961.392-2.79.141-1.03-.682-1.934-1.721-1.928l-6.068.034c-.89.005-1.571.69-1.707 1.57-.937 6.072-2.395 15.574-3.51 22.745-2.03 2.716-4.846 5.477-7.911 5.477-1.1 0-1.826-.73-1.895-2.715-.188-5.384 1.916-16.217 3.716-25.48.162-.835-.497-1.631-1.354-1.631h-7.387c-.634 0-1.164.447-1.268 1.068a81.136 81.136 0 0 1-.356 1.925c-1.144-1.522-3.842-4.231-8.401-3.933-6.997.458-16.793 9.1-15.338 25.44.752 8.448 6.49 11.63 12.233 10.92 4.515-.56 7.322-3.971 8.697-6.195 1.216 4.102 4.337 6.3 8.57 6.3 3.885 0 7.252-2.423 9.723-4.977a393.57 393.57 0 0 1-.398 2.466c-.16.966.685 1.81 1.664 1.81h6.357c.864 0 1.536-.66 1.662-1.515.243-1.637 1.408-9.189 2.568-16.88 1.408-4.979 5.573-10.593 9.211-10.593 1.692 0 2.25 1.778 2.25 3.12 0 3.065-2.366 14.659-2.366 17.956 0 5.646 3.866 8.613 8.7 8.613 4.218 0 7.564-2.737 9.81-5.369-.19 1.194-.347 2.173-.46 2.858-.16.966.685 1.81 1.664 1.81h6.356c.864 0 1.536-.66 1.663-1.515.242-1.637 1.407-9.188 2.567-16.88 1.409-4.978 5.574-10.593 9.211-10.593 1.692 0 2.25 1.778 2.25 3.12 0 3.065-2.366 14.659-2.366 17.956 0 5.646 3.867 8.613 8.7 8.613 5.371 0 9.332-4.437 11.4-7.445 2.696 5.602 8.03 7.442 12.082 7.442 17.39 0 26.016-18.702 28.97-26.932.091-.168.184-.397.282-.698 1.43-1.186 2.836-1.988 4.035-2.061 1.11-.068 1.635 1.27 1.408 3.251-.109.95-.343 1.926-.653 2.932-.044.06-3.676 9.176-4.409 13.876-.993 6.373 1.922 9.739 7.265 9.63 4.174-.085 9.581-2.72 13.274-7.492.75 4.885 3.955 7.494 8.594 7.494 5.257 0 8.785-3.786 10.873-7.118.856 4.638 4.006 7.118 8.522 7.118 7.573 0 16.9-9.356 20.225-20.81.27.024.545.041.832.041 2.256 0 4.256-.785 5.949-1.875-.777 4.748-1.45 9.75-1.45 12.834 0 6.374 3.44 9.81 8.765 9.81 5.09 0 9.03-3.236 11.571-6.199 1.275 2.105 4.36 5.692 10.682 6.08l-.017.037c.213 0 .42-.008.63-.012.17.004.339.012.514.012a16.9 16.9 0 0 0 3.16-.292c8.18-1.102 13.71-5.104 16.133-7.226 2.4 5.726 7.332 7.6 11.405 7.6 6.245 0 11.114-2.338 14.683-5.09.616-.475.773-1.404.356-2.061zM24.014 50.744c-5.043-.002-3.89-7.255-3.89-7.255l1.45-9.704c2.355-1.497 13.526-3.461 13.528 5.299.003 6.896-5.558 11.662-11.088 11.66zm22.945-36.592c.004 10.714-10.748 13.973-10.748 13.973s8.142 1.111 8.145 10.289C44.359 50.047 32.837 56 23.125 55.997c-9.684-.003-12.915-7.292-12.18-12.845l4.242-26.705c.115-.726.708-1.257 1.403-1.257l6.093.002c.875 0 1.543.83 1.407 1.747l-1.415 9.463c10.347-.375 14.81-6.648 14.808-11.537-.002-4.403-2.168-9.4-10.06-9.35C16.79 5.58 9.954 13.787 7.55 18.78c-.8 1.663-2.829 2.238-4.268 1.226L1.22 18.56c-.985-.693-1.445-1.967-1.112-3.184C2.442 6.833 16.48.215 27.402.219c9.234.003 19.553 4.123 19.556 13.933zm247.966.3c-3.447 0-5.94-2.873-5.568-6.417.371-3.543 3.466-6.416 6.912-6.416 3.447 0 5.94 2.873 5.569 6.416-.372 3.544-3.467 6.417-6.913 6.417z"/>
</svg>
